<svg width="44" height="44" viewBox="0 0 44 44" fill="none" xmlns="http://www.w3.org/2000/svg">
<path d="M22 3.25C32.3394 3.25 40.75 11.6606 40.75 22C40.75 32.3394 32.3394 40.75 22 40.75C11.6606 40.75 3.25 32.3394 3.25 22C3.25 11.6606 11.6606 3.25 22 3.25ZM22 0.125C9.9181 0.125 0.125 9.9181 0.125 22C0.125 34.0819 9.9181 43.875 22 43.875C34.0819 43.875 43.875 34.0819 43.875 22C43.875 9.9181 34.0819 0.125 22 0.125ZM15.75 11.0625C14.0227 11.0625 12.625 13.1621 12.625 15.75C12.625 18.3409 14.0228 20.4375 15.75 20.4375C17.4772 20.4375 18.875 18.3409 18.875 15.75C18.875 13.1621 17.4773 11.0625 15.75 11.0625ZM28.25 11.0625C26.5227 11.0625 25.125 13.1621 25.125 15.75C25.125 18.3409 26.5228 20.4375 28.25 20.4375C29.9772 20.4375 31.375 18.3409 31.375 15.75C31.375 13.1621 29.9773 11.0625 28.25 11.0625ZM36.0015 25.5614C36.2426 24.7344 35.7665 23.8677 34.9364 23.6235C34.1094 23.3764 33.2427 23.8616 32.9985 24.6855C31.5825 29.5439 27.0599 32.9375 22 32.9375C16.9401 32.9375 12.4175 29.5439 10.9999 24.6855C10.7588 23.8615 9.9013 23.3764 9.062 23.6235C8.2335 23.8677 7.7589 24.7344 8 25.5614C9.8036 31.7442 15.5608 36.0625 22 36.0625C28.4392 36.0625 34.1948 31.7442 36.0015 25.5614Z" fill="#264A36"/>
</svg>
