<svg width="33" height="30" viewBox="0 0 33 30" fill="none" xmlns="http://www.w3.org/2000/svg">
<path fill-rule="evenodd" clip-rule="evenodd" d="M16.7718 3.44072C16.684 3.37438 16.575 3.33825 16.4626 3.33825C16.3502 3.33825 16.2412 3.37438 16.1533 3.44072L5.74585 11.3157C5.68755 11.3597 5.64051 11.4157 5.60823 11.4793C5.57598 11.5429 5.55931 11.6126 5.55951 11.6832V24.8438C5.55951 25.1026 5.78153 25.3126 6.0551 25.3126H11.5066V15.4688C11.5066 15.0959 11.6633 14.7382 11.9421 14.4745C12.2209 14.2107 12.5991 14.0626 12.9934 14.0626H19.9318C20.3261 14.0626 20.7043 14.2107 20.983 14.4745C21.2619 14.7382 21.4185 15.0959 21.4185 15.4688V25.3126H26.8701C27.0015 25.3126 27.1276 25.2633 27.2206 25.1753C27.3135 25.0874 27.3657 24.9682 27.3657 24.8438V11.6813C27.3655 11.6111 27.3488 11.5417 27.3165 11.4784C27.2842 11.4152 27.2374 11.3596 27.1793 11.3157L16.7718 3.44072ZM14.2939 1.24508C14.9091 0.779371 15.6736 0.525635 16.4616 0.525635C17.2496 0.525635 18.0141 0.779371 18.6293 1.24508L29.0368 9.12009C29.8595 9.74257 30.3392 10.6857 30.3392 11.6832V24.8438C30.3392 25.714 29.9737 26.5486 29.3231 27.164C28.6725 27.7793 27.7901 28.1251 26.8701 28.1251H19.9318C19.5374 28.1251 19.1593 27.977 18.8804 27.7132C18.6016 27.4495 18.445 27.0918 18.445 26.7188V16.8751H14.4802V26.7188C14.4802 27.0918 14.3236 27.4495 14.0447 27.7132C13.7659 27.977 13.3877 28.1251 12.9934 28.1251H6.0551C5.13502 28.1251 4.25262 27.7793 3.60203 27.164C2.95143 26.5486 2.58594 25.714 2.58594 24.8438V11.6813C2.58594 10.6857 3.06567 9.74257 3.88836 9.12009L14.2958 1.24508H14.2939Z" fill="black"/>
</svg>
