<svg width="30" height="30" viewBox="0 0 30 30" fill="none" xmlns="http://www.w3.org/2000/svg">
<path fill-rule="evenodd" clip-rule="evenodd" d="M3.75 7.5C4.78553 7.5 5.625 6.66053 5.625 5.625C5.625 4.58947 4.78553 3.75 3.75 3.75C2.71447 3.75 1.875 4.58947 1.875 5.625C1.875 6.66053 2.71447 7.5 3.75 7.5ZM10.7812 4.6875C10.0046 4.6875 9.375 5.31711 9.375 6.09375C9.375 6.87039 10.0046 7.5 10.7812 7.5H26.7188C27.4954 7.5 28.125 6.87039 28.125 6.09375C28.125 5.31711 27.4954 4.6875 26.7188 4.6875H10.7812ZM10.7812 14.0625C10.0046 14.0625 9.375 14.6921 9.375 15.4688C9.375 16.2454 10.0046 16.875 10.7812 16.875H26.7188C27.4954 16.875 28.125 16.2454 28.125 15.4688C28.125 14.6921 27.4954 14.0625 26.7188 14.0625H10.7812ZM10.7812 23.4375C10.0046 23.4375 9.375 24.0671 9.375 24.8438C9.375 25.6204 10.0046 26.25 10.7812 26.25H26.7188C27.4954 26.25 28.125 25.6204 28.125 24.8438C28.125 24.0671 27.4954 23.4375 26.7188 23.4375H10.7812ZM5.625 15C5.625 16.0355 4.78553 16.875 3.75 16.875C2.71447 16.875 1.875 16.0355 1.875 15C1.875 13.9645 2.71447 13.125 3.75 13.125C4.78553 13.125 5.625 13.9645 5.625 15ZM3.75 26.25C4.78553 26.25 5.625 25.4106 5.625 24.375C5.625 23.3394 4.78553 22.5 3.75 22.5C2.71447 22.5 1.875 23.3394 1.875 24.375C1.875 25.4106 2.71447 26.25 3.75 26.25Z" fill="black"/>
</svg>
