<svg width="33" height="30" viewBox="0 0 33 30" fill="none" xmlns="http://www.w3.org/2000/svg">
<path fill-rule="evenodd" clip-rule="evenodd" d="M11.6388 9.37506C11.6388 10.6183 12.161 11.8105 13.0904 12.6896C14.0198 13.5687 15.2803 14.0626 16.5947 14.0626C17.9091 14.0626 19.1697 13.5687 20.0991 12.6896C21.0285 11.8105 21.5507 10.6183 21.5507 9.37506C21.5507 8.13186 21.0285 6.93957 20.0991 6.06049C19.1697 5.18142 17.9091 4.68756 16.5947 4.68756C15.2803 4.68756 14.0198 5.18142 13.0904 6.06049C12.161 6.93957 11.6388 8.13186 11.6388 9.37506ZM11.5179 15.1369C10.2664 14.15 9.36679 12.8224 8.94117 11.3347C8.51575 9.84698 8.58533 8.27143 9.1402 6.8224C9.69507 5.37336 10.7085 4.12118 12.0424 3.2362C13.3764 2.35123 14.9663 1.87646 16.5957 1.87646C18.2251 1.87646 19.815 2.35123 21.149 3.2362C22.483 4.12118 23.4964 5.37336 24.0513 6.8224C24.6062 8.27143 24.6756 9.84698 24.2502 11.3347C23.8248 12.8224 22.9251 14.15 21.6736 15.1369C23.6251 16.0096 25.2889 17.3677 26.487 19.066C27.6851 20.7644 28.3723 22.7387 28.4751 24.7782C28.4847 25.1457 28.3418 25.5021 28.0769 25.771C27.8121 26.0401 27.4464 26.2004 27.0582 26.2174C26.67 26.2347 26.2901 26.1074 25.9999 25.8629C25.7097 25.6184 25.5322 25.2762 25.5055 24.9094C25.3975 22.7429 24.4115 20.6989 22.7522 19.2019C21.0929 17.7048 18.8879 16.8696 16.5947 16.8696C14.3016 16.8696 12.0965 17.7048 10.4373 19.2019C8.77802 20.6989 7.79199 22.7429 7.68395 24.9094C7.67899 25.0967 7.63478 25.2811 7.55351 25.4519C7.47223 25.6227 7.35567 25.7764 7.21075 25.9039C7.06584 26.0316 6.89536 26.1306 6.70961 26.1951C6.52366 26.2596 6.32602 26.2883 6.12818 26.2795C5.93033 26.2709 5.73646 26.2247 5.55765 26.1441C5.37903 26.0635 5.21906 25.9501 5.08743 25.8102C4.9556 25.6703 4.85489 25.507 4.79086 25.3298C4.72663 25.1526 4.70066 24.9649 4.71434 24.7782C4.81743 22.7386 5.50492 20.764 6.70326 19.0656C7.90181 17.3673 9.56602 16.0093 11.5179 15.1369Z" fill="black"/>
</svg>
